<svg xmlns="http://www.w3.org/2000/svg" width="1200" height="600" viewBox="0 0 1200 600">
<defs><filter id="g" x="-100%" y="-200%" width="300%" height="500%"><feGaussianBlur stdDeviation="4"/></filter></defs>
<clipPath id="canvas"><rect width="1200" height="600" rx="14"/></clipPath><g clip-path="url(#canvas)">
<rect width="1200" height="300.0" fill="#0D1117"/>
<rect y="300.0" width="1200" height="300.0" fill="#FFFFFF"/>
<rect x="20" y="20.0" width="1160" height="260.0" rx="14" fill="#161B22" stroke="#21262D"/><text x="600.0" y="52.0" font-family="'Segoe UI', system-ui, -apple-system, Roboto, sans-serif" font-size="15" font-weight="600" fill="#E6EDF3" text-anchor="middle">Dark Theme</text>
<text x="44" y="72.0" font-family="'Segoe UI', system-ui, -apple-system, Roboto, sans-serif" font-size="13" font-weight="600" fill="#8B949E" text-anchor="start">Ramp Bars (Default)</text>
<text x="44" y="105.0" font-family="'Segoe UI', system-ui, -apple-system, Roboto, sans-serif" font-size="19.5" font-weight="400" fill="#E6EDF3" text-anchor="start">5-hour</text><clipPath id="c1"><rect x="116" y="92.75" width="105.51" height="10.5" rx="5.25"/></clipPath><rect x="116" y="92.75" width="128.66666666666669" height="10.5" rx="5.25" fill="#21262D"/><g filter="url(#g)" opacity="0.7"><g clip-path="url(#c1)"><rect x="116" y="92.75" width="105.51" height="10.5" fill="#FF5F1F"/><rect x="116.00" y="92.75" width="21.60" height="10.5" fill="#1E90FF"/><rect x="137.10" y="92.75" width="21.60" height="10.5" fill="#39FF14"/><rect x="158.20" y="92.75" width="21.60" height="10.5" fill="#00D45A"/><rect x="179.30" y="92.75" width="21.60" height="10.5" fill="#FFF01F"/><rect x="200.41" y="92.75" width="21.60" height="10.5" fill="#FF5F1F"/></g></g><g clip-path="url(#c1)"><rect x="116" y="92.75" width="105.51" height="10.5" fill="#FF5F1F"/><rect x="116.00" y="92.75" width="21.60" height="10.5" fill="#1E90FF"/><rect x="137.10" y="92.75" width="21.60" height="10.5" fill="#39FF14"/><rect x="158.20" y="92.75" width="21.60" height="10.5" fill="#00D45A"/><rect x="179.30" y="92.75" width="21.60" height="10.5" fill="#FFF01F"/><rect x="200.41" y="92.75" width="21.60" height="10.5" fill="#FF5F1F"/></g><g filter="url(#g)" opacity="0.7"><text x="258.6666666666667" y="105.0" font-family="'Segoe UI', system-ui, -apple-system, Roboto, sans-serif" font-size="19.5" font-weight="700" fill="#FF5F1F" text-anchor="start">82%</text></g><text x="258.6666666666667" y="105.0" font-family="'Segoe UI', system-ui, -apple-system, Roboto, sans-serif" font-size="19.5" font-weight="700" fill="#FF5F1F" text-anchor="start">82%</text><text x="308.6666666666667" y="105.0" font-family="'Segoe UI', system-ui, -apple-system, Roboto, sans-serif" font-size="19.5" font-weight="400" fill="#E6EDF3" text-anchor="start">in 3h13m</text><text x="409.6666666666667" y="105.0" font-family="'Segoe UI', system-ui, -apple-system, Roboto, sans-serif" font-size="19.5" font-weight="400" fill="#8B949E" text-anchor="middle">│</text><g opacity="1"><animate attributeName="opacity" values="1;0" keyTimes="0;0.5" dur="10s" calcMode="discrete" repeatCount="indefinite"/><text x="424.6666666666667" y="105.0" font-family="'Segoe UI', system-ui, -apple-system, Roboto, sans-serif" font-size="19.5" font-weight="400" fill="#E6EDF3" text-anchor="start">Weekly</text><clipPath id="c2"><rect x="496.6666666666667" y="92.75" width="23.42" height="10.5" rx="5.25"/></clipPath><rect x="496.6666666666667" y="92.75" width="128.66666666666669" height="10.5" rx="5.25" fill="#21262D"/><g filter="url(#g)" opacity="0.7"><g clip-path="url(#c2)"><rect x="496.6666666666667" y="92.75" width="23.42" height="10.5" fill="#1E90FF"/><rect x="496.67" y="92.75" width="23.92" height="10.5" fill="#1E90FF"/></g></g><g clip-path="url(#c2)"><rect x="496.6666666666667" y="92.75" width="23.42" height="10.5" fill="#1E90FF"/><rect x="496.67" y="92.75" width="23.92" height="10.5" fill="#1E90FF"/></g><g filter="url(#g)" opacity="0.7"><text x="639.3333333333334" y="105.0" font-family="'Segoe UI', system-ui, -apple-system, Roboto, sans-serif" font-size="19.5" font-weight="700" fill="#1E90FF" text-anchor="start">18%</text></g><text x="639.3333333333334" y="105.0" font-family="'Segoe UI', system-ui, -apple-system, Roboto, sans-serif" font-size="19.5" font-weight="700" fill="#1E90FF" text-anchor="start">18%</text><text x="689.3333333333334" y="105.0" font-family="'Segoe UI', system-ui, -apple-system, Roboto, sans-serif" font-size="19.5" font-weight="400" fill="#E6EDF3" text-anchor="start">Thu 14:05</text></g><g opacity="0"><animate attributeName="opacity" values="0;1" keyTimes="0;0.5" dur="10s" calcMode="discrete" repeatCount="indefinite"/><text x="424.6666666666667" y="105.0" font-family="'Segoe UI', system-ui, -apple-system, Roboto, sans-serif" font-size="19.5" font-weight="400" fill="#E6EDF3" text-anchor="start">Fable</text><clipPath id="c3"><rect x="496.6666666666667" y="92.75" width="88.78" height="10.5" rx="5.25"/></clipPath><rect x="496.6666666666667" y="92.75" width="128.66666666666669" height="10.5" rx="5.25" fill="#21262D"/><g filter="url(#g)" opacity="0.7"><g clip-path="url(#c3)"><rect x="496.6666666666667" y="92.75" width="88.78" height="10.5" fill="#00D45A"/><rect x="496.67" y="92.75" width="30.09" height="10.5" fill="#1E90FF"/><rect x="526.26" y="92.75" width="30.09" height="10.5" fill="#39FF14"/><rect x="555.85" y="92.75" width="30.09" height="10.5" fill="#00D45A"/></g></g><g clip-path="url(#c3)"><rect x="496.6666666666667" y="92.75" width="88.78" height="10.5" fill="#00D45A"/><rect x="496.67" y="92.75" width="30.09" height="10.5" fill="#1E90FF"/><rect x="526.26" y="92.75" width="30.09" height="10.5" fill="#39FF14"/><rect x="555.85" y="92.75" width="30.09" height="10.5" fill="#00D45A"/></g><g filter="url(#g)" opacity="0.7"><text x="639.3333333333334" y="105.0" font-family="'Segoe UI', system-ui, -apple-system, Roboto, sans-serif" font-size="19.5" font-weight="700" fill="#00D45A" text-anchor="start">69%</text></g><text x="639.3333333333334" y="105.0" font-family="'Segoe UI', system-ui, -apple-system, Roboto, sans-serif" font-size="19.5" font-weight="700" fill="#00D45A" text-anchor="start">69%</text><text x="689.3333333333334" y="105.0" font-family="'Segoe UI', system-ui, -apple-system, Roboto, sans-serif" font-size="19.5" font-weight="400" fill="#E6EDF3" text-anchor="start">Thu 14:05</text></g><text x="790.3333333333334" y="105.0" font-family="'Segoe UI', system-ui, -apple-system, Roboto, sans-serif" font-size="19.5" font-weight="400" fill="#8B949E" text-anchor="middle">│</text><text x="805.3333333333334" y="105.0" font-family="'Segoe UI', system-ui, -apple-system, Roboto, sans-serif" font-size="19.5" font-weight="400" fill="#E6EDF3" text-anchor="start">Context</text><clipPath id="c4"><rect x="885.3333333333334" y="92.75" width="112.22" height="10.5" rx="5.25"/></clipPath><rect x="885.3333333333334" y="92.75" width="120.66666666666669" height="10.5" rx="5.25" fill="#21262D"/><g filter="url(#g)" opacity="0.7"><g clip-path="url(#c4)"><rect x="885.3333333333334" y="92.75" width="112.22" height="10.5" fill="#FF073A"/><rect x="885.33" y="92.75" width="19.20" height="10.5" fill="#1E90FF"/><rect x="904.04" y="92.75" width="19.20" height="10.5" fill="#39FF14"/><rect x="922.74" y="92.75" width="19.20" height="10.5" fill="#00D45A"/><rect x="941.44" y="92.75" width="19.20" height="10.5" fill="#FFF01F"/><rect x="960.15" y="92.75" width="19.20" height="10.5" fill="#FF5F1F"/><rect x="978.85" y="92.75" width="19.20" height="10.5" fill="#FF073A"/></g></g><g clip-path="url(#c4)"><rect x="885.3333333333334" y="92.75" width="112.22" height="10.5" fill="#FF073A"/><rect x="885.33" y="92.75" width="19.20" height="10.5" fill="#1E90FF"/><rect x="904.04" y="92.75" width="19.20" height="10.5" fill="#39FF14"/><rect x="922.74" y="92.75" width="19.20" height="10.5" fill="#00D45A"/><rect x="941.44" y="92.75" width="19.20" height="10.5" fill="#FFF01F"/><rect x="960.15" y="92.75" width="19.20" height="10.5" fill="#FF5F1F"/><rect x="978.85" y="92.75" width="19.20" height="10.5" fill="#FF073A"/></g><g filter="url(#g)" opacity="0.7"><text x="1020.0" y="105.0" font-family="'Segoe UI', system-ui, -apple-system, Roboto, sans-serif" font-size="19.5" font-weight="700" fill="#FF073A" text-anchor="start">93%</text></g><text x="1020.0" y="105.0" font-family="'Segoe UI', system-ui, -apple-system, Roboto, sans-serif" font-size="19.5" font-weight="700" fill="#FF073A" text-anchor="start">93%</text><text x="1070.0" y="105.0" font-family="'Segoe UI', system-ui, -apple-system, Roboto, sans-serif" font-size="19.5" font-weight="400" fill="#E6EDF3" text-anchor="start">930k/1M</text>
<text x="44" y="142.0" font-family="'Segoe UI', system-ui, -apple-system, Roboto, sans-serif" font-size="13" font-weight="600" fill="#8B949E" text-anchor="start">Level Bars</text>
<text x="44" y="175.0" font-family="'Segoe UI', system-ui, -apple-system, Roboto, sans-serif" font-size="19.5" font-weight="400" fill="#E6EDF3" text-anchor="start">5-hour</text><clipPath id="c5"><rect x="116" y="162.75" width="105.51" height="10.5" rx="5.25"/></clipPath><rect x="116" y="162.75" width="128.66666666666669" height="10.5" rx="5.25" fill="#21262D"/><g filter="url(#g)" opacity="0.7"><g clip-path="url(#c5)"><rect x="116" y="162.75" width="105.51" height="10.5" fill="#FF5F1F"/><rect x="116.00" y="162.75" width="106.01" height="10.5" fill="#FF5F1F"/></g></g><g clip-path="url(#c5)"><rect x="116" y="162.75" width="105.51" height="10.5" fill="#FF5F1F"/><rect x="116.00" y="162.75" width="106.01" height="10.5" fill="#FF5F1F"/></g><g filter="url(#g)" opacity="0.7"><text x="258.6666666666667" y="175.0" font-family="'Segoe UI', system-ui, -apple-system, Roboto, sans-serif" font-size="19.5" font-weight="700" fill="#FF5F1F" text-anchor="start">82%</text></g><text x="258.6666666666667" y="175.0" font-family="'Segoe UI', system-ui, -apple-system, Roboto, sans-serif" font-size="19.5" font-weight="700" fill="#FF5F1F" text-anchor="start">82%</text><text x="308.6666666666667" y="175.0" font-family="'Segoe UI', system-ui, -apple-system, Roboto, sans-serif" font-size="19.5" font-weight="400" fill="#E6EDF3" text-anchor="start">in 3h13m</text><text x="409.6666666666667" y="175.0" font-family="'Segoe UI', system-ui, -apple-system, Roboto, sans-serif" font-size="19.5" font-weight="400" fill="#8B949E" text-anchor="middle">│</text><g opacity="1"><animate attributeName="opacity" values="1;0" keyTimes="0;0.5" dur="10s" calcMode="discrete" repeatCount="indefinite"/><text x="424.6666666666667" y="175.0" font-family="'Segoe UI', system-ui, -apple-system, Roboto, sans-serif" font-size="19.5" font-weight="400" fill="#E6EDF3" text-anchor="start">Weekly</text><clipPath id="c6"><rect x="496.6666666666667" y="162.75" width="23.42" height="10.5" rx="5.25"/></clipPath><rect x="496.6666666666667" y="162.75" width="128.66666666666669" height="10.5" rx="5.25" fill="#21262D"/><g filter="url(#g)" opacity="0.7"><g clip-path="url(#c6)"><rect x="496.6666666666667" y="162.75" width="23.42" height="10.5" fill="#1E90FF"/><rect x="496.67" y="162.75" width="23.92" height="10.5" fill="#1E90FF"/></g></g><g clip-path="url(#c6)"><rect x="496.6666666666667" y="162.75" width="23.42" height="10.5" fill="#1E90FF"/><rect x="496.67" y="162.75" width="23.92" height="10.5" fill="#1E90FF"/></g><g filter="url(#g)" opacity="0.7"><text x="639.3333333333334" y="175.0" font-family="'Segoe UI', system-ui, -apple-system, Roboto, sans-serif" font-size="19.5" font-weight="700" fill="#1E90FF" text-anchor="start">18%</text></g><text x="639.3333333333334" y="175.0" font-family="'Segoe UI', system-ui, -apple-system, Roboto, sans-serif" font-size="19.5" font-weight="700" fill="#1E90FF" text-anchor="start">18%</text><text x="689.3333333333334" y="175.0" font-family="'Segoe UI', system-ui, -apple-system, Roboto, sans-serif" font-size="19.5" font-weight="400" fill="#E6EDF3" text-anchor="start">Thu 14:05</text></g><g opacity="0"><animate attributeName="opacity" values="0;1" keyTimes="0;0.5" dur="10s" calcMode="discrete" repeatCount="indefinite"/><text x="424.6666666666667" y="175.0" font-family="'Segoe UI', system-ui, -apple-system, Roboto, sans-serif" font-size="19.5" font-weight="400" fill="#E6EDF3" text-anchor="start">Fable</text><clipPath id="c7"><rect x="496.6666666666667" y="162.75" width="88.78" height="10.5" rx="5.25"/></clipPath><rect x="496.6666666666667" y="162.75" width="128.66666666666669" height="10.5" rx="5.25" fill="#21262D"/><g filter="url(#g)" opacity="0.7"><g clip-path="url(#c7)"><rect x="496.6666666666667" y="162.75" width="88.78" height="10.5" fill="#00D45A"/><rect x="496.67" y="162.75" width="89.28" height="10.5" fill="#00D45A"/></g></g><g clip-path="url(#c7)"><rect x="496.6666666666667" y="162.75" width="88.78" height="10.5" fill="#00D45A"/><rect x="496.67" y="162.75" width="89.28" height="10.5" fill="#00D45A"/></g><g filter="url(#g)" opacity="0.7"><text x="639.3333333333334" y="175.0" font-family="'Segoe UI', system-ui, -apple-system, Roboto, sans-serif" font-size="19.5" font-weight="700" fill="#00D45A" text-anchor="start">69%</text></g><text x="639.3333333333334" y="175.0" font-family="'Segoe UI', system-ui, -apple-system, Roboto, sans-serif" font-size="19.5" font-weight="700" fill="#00D45A" text-anchor="start">69%</text><text x="689.3333333333334" y="175.0" font-family="'Segoe UI', system-ui, -apple-system, Roboto, sans-serif" font-size="19.5" font-weight="400" fill="#E6EDF3" text-anchor="start">Thu 14:05</text></g><text x="790.3333333333334" y="175.0" font-family="'Segoe UI', system-ui, -apple-system, Roboto, sans-serif" font-size="19.5" font-weight="400" fill="#8B949E" text-anchor="middle">│</text><text x="805.3333333333334" y="175.0" font-family="'Segoe UI', system-ui, -apple-system, Roboto, sans-serif" font-size="19.5" font-weight="400" fill="#E6EDF3" text-anchor="start">Context</text><clipPath id="c8"><rect x="885.3333333333334" y="162.75" width="112.22" height="10.5" rx="5.25"/></clipPath><rect x="885.3333333333334" y="162.75" width="120.66666666666669" height="10.5" rx="5.25" fill="#21262D"/><g filter="url(#g)" opacity="0.7"><g clip-path="url(#c8)"><rect x="885.3333333333334" y="162.75" width="112.22" height="10.5" fill="#FF073A"/><rect x="885.33" y="162.75" width="112.72" height="10.5" fill="#FF073A"/></g></g><g clip-path="url(#c8)"><rect x="885.3333333333334" y="162.75" width="112.22" height="10.5" fill="#FF073A"/><rect x="885.33" y="162.75" width="112.72" height="10.5" fill="#FF073A"/></g><g filter="url(#g)" opacity="0.7"><text x="1020.0" y="175.0" font-family="'Segoe UI', system-ui, -apple-system, Roboto, sans-serif" font-size="19.5" font-weight="700" fill="#FF073A" text-anchor="start">93%</text></g><text x="1020.0" y="175.0" font-family="'Segoe UI', system-ui, -apple-system, Roboto, sans-serif" font-size="19.5" font-weight="700" fill="#FF073A" text-anchor="start">93%</text><text x="1070.0" y="175.0" font-family="'Segoe UI', system-ui, -apple-system, Roboto, sans-serif" font-size="19.5" font-weight="400" fill="#E6EDF3" text-anchor="start">930k/1M</text>
<text x="44" y="212.0" font-family="'Segoe UI', system-ui, -apple-system, Roboto, sans-serif" font-size="13" font-weight="600" fill="#8B949E" text-anchor="start">Dots</text>
<text x="44" y="245.0" font-family="'Segoe UI', system-ui, -apple-system, Roboto, sans-serif" font-size="19.5" font-weight="400" fill="#E6EDF3" text-anchor="start">5-hour</text><g filter="url(#g)" opacity="0.7"><circle cx="123.5" cy="238.0" r="6" fill="#1E90FF"/></g><circle cx="123.5" cy="238.0" r="4.8" fill="#1E90FF"/><g filter="url(#g)" opacity="0.7"><circle cx="138.5" cy="238.0" r="6" fill="#1E90FF"/></g><circle cx="138.5" cy="238.0" r="4.8" fill="#1E90FF"/><g filter="url(#g)" opacity="0.7"><circle cx="153.5" cy="238.0" r="6" fill="#39FF14"/></g><circle cx="153.5" cy="238.0" r="4.8" fill="#39FF14"/><g filter="url(#g)" opacity="0.7"><circle cx="168.5" cy="238.0" r="6" fill="#00D45A"/></g><circle cx="168.5" cy="238.0" r="4.8" fill="#00D45A"/><g filter="url(#g)" opacity="0.7"><circle cx="183.5" cy="238.0" r="6" fill="#00D45A"/></g><circle cx="183.5" cy="238.0" r="4.8" fill="#00D45A"/><g filter="url(#g)" opacity="0.7"><circle cx="198.5" cy="238.0" r="6" fill="#FFF01F"/></g><circle cx="198.5" cy="238.0" r="4.8" fill="#FFF01F"/><g filter="url(#g)" opacity="0.7"><circle cx="213.5" cy="238.0" r="6" fill="#FF5F1F"/></g><circle cx="213.5" cy="238.0" r="4.8" fill="#FF5F1F"/><circle cx="228.5" cy="238.0" r="4.8" fill="#21262D"/><g filter="url(#g)" opacity="0.7"><text x="258.6666666666667" y="245.0" font-family="'Segoe UI', system-ui, -apple-system, Roboto, sans-serif" font-size="19.5" font-weight="700" fill="#FF5F1F" text-anchor="start">82%</text></g><text x="258.6666666666667" y="245.0" font-family="'Segoe UI', system-ui, -apple-system, Roboto, sans-serif" font-size="19.5" font-weight="700" fill="#FF5F1F" text-anchor="start">82%</text><text x="308.6666666666667" y="245.0" font-family="'Segoe UI', system-ui, -apple-system, Roboto, sans-serif" font-size="19.5" font-weight="400" fill="#E6EDF3" text-anchor="start">in 3h13m</text><text x="409.6666666666667" y="245.0" font-family="'Segoe UI', system-ui, -apple-system, Roboto, sans-serif" font-size="19.5" font-weight="400" fill="#8B949E" text-anchor="middle">│</text><g opacity="1"><animate attributeName="opacity" values="1;0" keyTimes="0;0.5" dur="10s" calcMode="discrete" repeatCount="indefinite"/><text x="424.6666666666667" y="245.0" font-family="'Segoe UI', system-ui, -apple-system, Roboto, sans-serif" font-size="19.5" font-weight="400" fill="#E6EDF3" text-anchor="start">Weekly</text><g filter="url(#g)" opacity="0.7"><circle cx="504.1666666666667" cy="238.0" r="6" fill="#1E90FF"/></g><circle cx="504.1666666666667" cy="238.0" r="4.8" fill="#1E90FF"/><circle cx="519.1666666666667" cy="238.0" r="4.8" fill="#21262D"/><circle cx="534.1666666666667" cy="238.0" r="4.8" fill="#21262D"/><circle cx="549.1666666666667" cy="238.0" r="4.8" fill="#21262D"/><circle cx="564.1666666666667" cy="238.0" r="4.8" fill="#21262D"/><circle cx="579.1666666666667" cy="238.0" r="4.8" fill="#21262D"/><circle cx="594.1666666666667" cy="238.0" r="4.8" fill="#21262D"/><circle cx="609.1666666666667" cy="238.0" r="4.8" fill="#21262D"/><g filter="url(#g)" opacity="0.7"><text x="639.3333333333334" y="245.0" font-family="'Segoe UI', system-ui, -apple-system, Roboto, sans-serif" font-size="19.5" font-weight="700" fill="#1E90FF" text-anchor="start">18%</text></g><text x="639.3333333333334" y="245.0" font-family="'Segoe UI', system-ui, -apple-system, Roboto, sans-serif" font-size="19.5" font-weight="700" fill="#1E90FF" text-anchor="start">18%</text><text x="689.3333333333334" y="245.0" font-family="'Segoe UI', system-ui, -apple-system, Roboto, sans-serif" font-size="19.5" font-weight="400" fill="#E6EDF3" text-anchor="start">Thu 14:05</text></g><g opacity="0"><animate attributeName="opacity" values="0;1" keyTimes="0;0.5" dur="10s" calcMode="discrete" repeatCount="indefinite"/><text x="424.6666666666667" y="245.0" font-family="'Segoe UI', system-ui, -apple-system, Roboto, sans-serif" font-size="19.5" font-weight="400" fill="#E6EDF3" text-anchor="start">Fable</text><g filter="url(#g)" opacity="0.7"><circle cx="504.1666666666667" cy="238.0" r="6" fill="#1E90FF"/></g><circle cx="504.1666666666667" cy="238.0" r="4.8" fill="#1E90FF"/><g filter="url(#g)" opacity="0.7"><circle cx="519.1666666666667" cy="238.0" r="6" fill="#1E90FF"/></g><circle cx="519.1666666666667" cy="238.0" r="4.8" fill="#1E90FF"/><g filter="url(#g)" opacity="0.7"><circle cx="534.1666666666667" cy="238.0" r="6" fill="#39FF14"/></g><circle cx="534.1666666666667" cy="238.0" r="4.8" fill="#39FF14"/><g filter="url(#g)" opacity="0.7"><circle cx="549.1666666666667" cy="238.0" r="6" fill="#39FF14"/></g><circle cx="549.1666666666667" cy="238.0" r="4.8" fill="#39FF14"/><g filter="url(#g)" opacity="0.7"><circle cx="564.1666666666667" cy="238.0" r="6" fill="#00D45A"/></g><circle cx="564.1666666666667" cy="238.0" r="4.8" fill="#00D45A"/><g filter="url(#g)" opacity="0.7"><circle cx="579.1666666666667" cy="238.0" r="6" fill="#00D45A"/></g><circle cx="579.1666666666667" cy="238.0" r="4.8" fill="#00D45A"/><circle cx="594.1666666666667" cy="238.0" r="4.8" fill="#21262D"/><circle cx="609.1666666666667" cy="238.0" r="4.8" fill="#21262D"/><g filter="url(#g)" opacity="0.7"><text x="639.3333333333334" y="245.0" font-family="'Segoe UI', system-ui, -apple-system, Roboto, sans-serif" font-size="19.5" font-weight="700" fill="#00D45A" text-anchor="start">69%</text></g><text x="639.3333333333334" y="245.0" font-family="'Segoe UI', system-ui, -apple-system, Roboto, sans-serif" font-size="19.5" font-weight="700" fill="#00D45A" text-anchor="start">69%</text><text x="689.3333333333334" y="245.0" font-family="'Segoe UI', system-ui, -apple-system, Roboto, sans-serif" font-size="19.5" font-weight="400" fill="#E6EDF3" text-anchor="start">Thu 14:05</text></g><text x="790.3333333333334" y="245.0" font-family="'Segoe UI', system-ui, -apple-system, Roboto, sans-serif" font-size="19.5" font-weight="400" fill="#8B949E" text-anchor="middle">│</text><text x="805.3333333333334" y="245.0" font-family="'Segoe UI', system-ui, -apple-system, Roboto, sans-serif" font-size="19.5" font-weight="400" fill="#E6EDF3" text-anchor="start">Context</text><g filter="url(#g)" opacity="0.7"><circle cx="892.8333333333334" cy="238.0" r="6" fill="#1E90FF"/></g><circle cx="892.8333333333334" cy="238.0" r="4.8" fill="#1E90FF"/><g filter="url(#g)" opacity="0.7"><circle cx="907.8333333333334" cy="238.0" r="6" fill="#1E90FF"/></g><circle cx="907.8333333333334" cy="238.0" r="4.8" fill="#1E90FF"/><g filter="url(#g)" opacity="0.7"><circle cx="922.8333333333334" cy="238.0" r="6" fill="#39FF14"/></g><circle cx="922.8333333333334" cy="238.0" r="4.8" fill="#39FF14"/><g filter="url(#g)" opacity="0.7"><circle cx="937.8333333333334" cy="238.0" r="6" fill="#00D45A"/></g><circle cx="937.8333333333334" cy="238.0" r="4.8" fill="#00D45A"/><g filter="url(#g)" opacity="0.7"><circle cx="952.8333333333334" cy="238.0" r="6" fill="#FFF01F"/></g><circle cx="952.8333333333334" cy="238.0" r="4.8" fill="#FFF01F"/><g filter="url(#g)" opacity="0.7"><circle cx="967.8333333333334" cy="238.0" r="6" fill="#FF5F1F"/></g><circle cx="967.8333333333334" cy="238.0" r="4.8" fill="#FF5F1F"/><g filter="url(#g)" opacity="0.7"><circle cx="982.8333333333334" cy="238.0" r="6" fill="#FF073A"/></g><circle cx="982.8333333333334" cy="238.0" r="4.8" fill="#FF073A"/><circle cx="997.8333333333334" cy="238.0" r="4.8" fill="#21262D"/><g filter="url(#g)" opacity="0.7"><text x="1020.0" y="245.0" font-family="'Segoe UI', system-ui, -apple-system, Roboto, sans-serif" font-size="19.5" font-weight="700" fill="#FF073A" text-anchor="start">93%</text></g><text x="1020.0" y="245.0" font-family="'Segoe UI', system-ui, -apple-system, Roboto, sans-serif" font-size="19.5" font-weight="700" fill="#FF073A" text-anchor="start">93%</text><text x="1070.0" y="245.0" font-family="'Segoe UI', system-ui, -apple-system, Roboto, sans-serif" font-size="19.5" font-weight="400" fill="#E6EDF3" text-anchor="start">930k/1M</text>
<rect x="20" y="320.0" width="1160" height="260.0" rx="14" fill="#F6F8FA" stroke="#EBEDF0"/><text x="600.0" y="352.0" font-family="'Segoe UI', system-ui, -apple-system, Roboto, sans-serif" font-size="15" font-weight="600" fill="#1F2328" text-anchor="middle">Light Theme</text>
<text x="44" y="372.0" font-family="'Segoe UI', system-ui, -apple-system, Roboto, sans-serif" font-size="13" font-weight="600" fill="#656D76" text-anchor="start">Ramp Bars (Default)</text>
<text x="44" y="405.0" font-family="'Segoe UI', system-ui, -apple-system, Roboto, sans-serif" font-size="19.5" font-weight="400" fill="#1F2328" text-anchor="start">5-hour</text><clipPath id="c9"><rect x="116" y="392.75" width="105.51" height="10.5" rx="5.25"/></clipPath><rect x="116" y="392.75" width="128.66666666666669" height="10.5" rx="5.25" fill="#EBEDF0"/><g filter="url(#g)" opacity="0.7"><g clip-path="url(#c9)"><rect x="116" y="392.75" width="105.51" height="10.5" fill="#E84A00"/><rect x="116.00" y="392.75" width="21.60" height="10.5" fill="#1874D2"/><rect x="137.10" y="392.75" width="21.60" height="10.5" fill="#32A800"/><rect x="158.20" y="392.75" width="21.60" height="10.5" fill="#139A43"/><rect x="179.30" y="392.75" width="21.60" height="10.5" fill="#A89200"/><rect x="200.41" y="392.75" width="21.60" height="10.5" fill="#E84A00"/></g></g><g clip-path="url(#c9)"><rect x="116" y="392.75" width="105.51" height="10.5" fill="#E84A00"/><rect x="116.00" y="392.75" width="21.60" height="10.5" fill="#1874D2"/><rect x="137.10" y="392.75" width="21.60" height="10.5" fill="#32A800"/><rect x="158.20" y="392.75" width="21.60" height="10.5" fill="#139A43"/><rect x="179.30" y="392.75" width="21.60" height="10.5" fill="#A89200"/><rect x="200.41" y="392.75" width="21.60" height="10.5" fill="#E84A00"/></g><g filter="url(#g)" opacity="0.7"><text x="258.6666666666667" y="405.0" font-family="'Segoe UI', system-ui, -apple-system, Roboto, sans-serif" font-size="19.5" font-weight="700" fill="#E84A00" text-anchor="start">82%</text></g><text x="258.6666666666667" y="405.0" font-family="'Segoe UI', system-ui, -apple-system, Roboto, sans-serif" font-size="19.5" font-weight="700" fill="#E84A00" text-anchor="start">82%</text><text x="308.6666666666667" y="405.0" font-family="'Segoe UI', system-ui, -apple-system, Roboto, sans-serif" font-size="19.5" font-weight="400" fill="#1F2328" text-anchor="start">in 3h13m</text><text x="409.6666666666667" y="405.0" font-family="'Segoe UI', system-ui, -apple-system, Roboto, sans-serif" font-size="19.5" font-weight="400" fill="#656D76" text-anchor="middle">│</text><g opacity="1"><animate attributeName="opacity" values="1;0" keyTimes="0;0.5" dur="10s" calcMode="discrete" repeatCount="indefinite"/><text x="424.6666666666667" y="405.0" font-family="'Segoe UI', system-ui, -apple-system, Roboto, sans-serif" font-size="19.5" font-weight="400" fill="#1F2328" text-anchor="start">Weekly</text><clipPath id="c10"><rect x="496.6666666666667" y="392.75" width="23.42" height="10.5" rx="5.25"/></clipPath><rect x="496.6666666666667" y="392.75" width="128.66666666666669" height="10.5" rx="5.25" fill="#EBEDF0"/><g filter="url(#g)" opacity="0.7"><g clip-path="url(#c10)"><rect x="496.6666666666667" y="392.75" width="23.42" height="10.5" fill="#1874D2"/><rect x="496.67" y="392.75" width="23.92" height="10.5" fill="#1874D2"/></g></g><g clip-path="url(#c10)"><rect x="496.6666666666667" y="392.75" width="23.42" height="10.5" fill="#1874D2"/><rect x="496.67" y="392.75" width="23.92" height="10.5" fill="#1874D2"/></g><g filter="url(#g)" opacity="0.7"><text x="639.3333333333334" y="405.0" font-family="'Segoe UI', system-ui, -apple-system, Roboto, sans-serif" font-size="19.5" font-weight="700" fill="#1874D2" text-anchor="start">18%</text></g><text x="639.3333333333334" y="405.0" font-family="'Segoe UI', system-ui, -apple-system, Roboto, sans-serif" font-size="19.5" font-weight="700" fill="#1874D2" text-anchor="start">18%</text><text x="689.3333333333334" y="405.0" font-family="'Segoe UI', system-ui, -apple-system, Roboto, sans-serif" font-size="19.5" font-weight="400" fill="#1F2328" text-anchor="start">Thu 14:05</text></g><g opacity="0"><animate attributeName="opacity" values="0;1" keyTimes="0;0.5" dur="10s" calcMode="discrete" repeatCount="indefinite"/><text x="424.6666666666667" y="405.0" font-family="'Segoe UI', system-ui, -apple-system, Roboto, sans-serif" font-size="19.5" font-weight="400" fill="#1F2328" text-anchor="start">Fable</text><clipPath id="c11"><rect x="496.6666666666667" y="392.75" width="88.78" height="10.5" rx="5.25"/></clipPath><rect x="496.6666666666667" y="392.75" width="128.66666666666669" height="10.5" rx="5.25" fill="#EBEDF0"/><g filter="url(#g)" opacity="0.7"><g clip-path="url(#c11)"><rect x="496.6666666666667" y="392.75" width="88.78" height="10.5" fill="#139A43"/><rect x="496.67" y="392.75" width="30.09" height="10.5" fill="#1874D2"/><rect x="526.26" y="392.75" width="30.09" height="10.5" fill="#32A800"/><rect x="555.85" y="392.75" width="30.09" height="10.5" fill="#139A43"/></g></g><g clip-path="url(#c11)"><rect x="496.6666666666667" y="392.75" width="88.78" height="10.5" fill="#139A43"/><rect x="496.67" y="392.75" width="30.09" height="10.5" fill="#1874D2"/><rect x="526.26" y="392.75" width="30.09" height="10.5" fill="#32A800"/><rect x="555.85" y="392.75" width="30.09" height="10.5" fill="#139A43"/></g><g filter="url(#g)" opacity="0.7"><text x="639.3333333333334" y="405.0" font-family="'Segoe UI', system-ui, -apple-system, Roboto, sans-serif" font-size="19.5" font-weight="700" fill="#139A43" text-anchor="start">69%</text></g><text x="639.3333333333334" y="405.0" font-family="'Segoe UI', system-ui, -apple-system, Roboto, sans-serif" font-size="19.5" font-weight="700" fill="#139A43" text-anchor="start">69%</text><text x="689.3333333333334" y="405.0" font-family="'Segoe UI', system-ui, -apple-system, Roboto, sans-serif" font-size="19.5" font-weight="400" fill="#1F2328" text-anchor="start">Thu 14:05</text></g><text x="790.3333333333334" y="405.0" font-family="'Segoe UI', system-ui, -apple-system, Roboto, sans-serif" font-size="19.5" font-weight="400" fill="#656D76" text-anchor="middle">│</text><text x="805.3333333333334" y="405.0" font-family="'Segoe UI', system-ui, -apple-system, Roboto, sans-serif" font-size="19.5" font-weight="400" fill="#1F2328" text-anchor="start">Context</text><clipPath id="c12"><rect x="885.3333333333334" y="392.75" width="112.22" height="10.5" rx="5.25"/></clipPath><rect x="885.3333333333334" y="392.75" width="120.66666666666669" height="10.5" rx="5.25" fill="#EBEDF0"/><g filter="url(#g)" opacity="0.7"><g clip-path="url(#c12)"><rect x="885.3333333333334" y="392.75" width="112.22" height="10.5" fill="#E8001F"/><rect x="885.33" y="392.75" width="19.20" height="10.5" fill="#1874D2"/><rect x="904.04" y="392.75" width="19.20" height="10.5" fill="#32A800"/><rect x="922.74" y="392.75" width="19.20" height="10.5" fill="#139A43"/><rect x="941.44" y="392.75" width="19.20" height="10.5" fill="#A89200"/><rect x="960.15" y="392.75" width="19.20" height="10.5" fill="#E84A00"/><rect x="978.85" y="392.75" width="19.20" height="10.5" fill="#E8001F"/></g></g><g clip-path="url(#c12)"><rect x="885.3333333333334" y="392.75" width="112.22" height="10.5" fill="#E8001F"/><rect x="885.33" y="392.75" width="19.20" height="10.5" fill="#1874D2"/><rect x="904.04" y="392.75" width="19.20" height="10.5" fill="#32A800"/><rect x="922.74" y="392.75" width="19.20" height="10.5" fill="#139A43"/><rect x="941.44" y="392.75" width="19.20" height="10.5" fill="#A89200"/><rect x="960.15" y="392.75" width="19.20" height="10.5" fill="#E84A00"/><rect x="978.85" y="392.75" width="19.20" height="10.5" fill="#E8001F"/></g><g filter="url(#g)" opacity="0.7"><text x="1020.0" y="405.0" font-family="'Segoe UI', system-ui, -apple-system, Roboto, sans-serif" font-size="19.5" font-weight="700" fill="#E8001F" text-anchor="start">93%</text></g><text x="1020.0" y="405.0" font-family="'Segoe UI', system-ui, -apple-system, Roboto, sans-serif" font-size="19.5" font-weight="700" fill="#E8001F" text-anchor="start">93%</text><text x="1070.0" y="405.0" font-family="'Segoe UI', system-ui, -apple-system, Roboto, sans-serif" font-size="19.5" font-weight="400" fill="#1F2328" text-anchor="start">930k/1M</text>
<text x="44" y="442.0" font-family="'Segoe UI', system-ui, -apple-system, Roboto, sans-serif" font-size="13" font-weight="600" fill="#656D76" text-anchor="start">Level Bars</text>
<text x="44" y="475.0" font-family="'Segoe UI', system-ui, -apple-system, Roboto, sans-serif" font-size="19.5" font-weight="400" fill="#1F2328" text-anchor="start">5-hour</text><clipPath id="c13"><rect x="116" y="462.75" width="105.51" height="10.5" rx="5.25"/></clipPath><rect x="116" y="462.75" width="128.66666666666669" height="10.5" rx="5.25" fill="#EBEDF0"/><g filter="url(#g)" opacity="0.7"><g clip-path="url(#c13)"><rect x="116" y="462.75" width="105.51" height="10.5" fill="#E84A00"/><rect x="116.00" y="462.75" width="106.01" height="10.5" fill="#E84A00"/></g></g><g clip-path="url(#c13)"><rect x="116" y="462.75" width="105.51" height="10.5" fill="#E84A00"/><rect x="116.00" y="462.75" width="106.01" height="10.5" fill="#E84A00"/></g><g filter="url(#g)" opacity="0.7"><text x="258.6666666666667" y="475.0" font-family="'Segoe UI', system-ui, -apple-system, Roboto, sans-serif" font-size="19.5" font-weight="700" fill="#E84A00" text-anchor="start">82%</text></g><text x="258.6666666666667" y="475.0" font-family="'Segoe UI', system-ui, -apple-system, Roboto, sans-serif" font-size="19.5" font-weight="700" fill="#E84A00" text-anchor="start">82%</text><text x="308.6666666666667" y="475.0" font-family="'Segoe UI', system-ui, -apple-system, Roboto, sans-serif" font-size="19.5" font-weight="400" fill="#1F2328" text-anchor="start">in 3h13m</text><text x="409.6666666666667" y="475.0" font-family="'Segoe UI', system-ui, -apple-system, Roboto, sans-serif" font-size="19.5" font-weight="400" fill="#656D76" text-anchor="middle">│</text><g opacity="1"><animate attributeName="opacity" values="1;0" keyTimes="0;0.5" dur="10s" calcMode="discrete" repeatCount="indefinite"/><text x="424.6666666666667" y="475.0" font-family="'Segoe UI', system-ui, -apple-system, Roboto, sans-serif" font-size="19.5" font-weight="400" fill="#1F2328" text-anchor="start">Weekly</text><clipPath id="c14"><rect x="496.6666666666667" y="462.75" width="23.42" height="10.5" rx="5.25"/></clipPath><rect x="496.6666666666667" y="462.75" width="128.66666666666669" height="10.5" rx="5.25" fill="#EBEDF0"/><g filter="url(#g)" opacity="0.7"><g clip-path="url(#c14)"><rect x="496.6666666666667" y="462.75" width="23.42" height="10.5" fill="#1874D2"/><rect x="496.67" y="462.75" width="23.92" height="10.5" fill="#1874D2"/></g></g><g clip-path="url(#c14)"><rect x="496.6666666666667" y="462.75" width="23.42" height="10.5" fill="#1874D2"/><rect x="496.67" y="462.75" width="23.92" height="10.5" fill="#1874D2"/></g><g filter="url(#g)" opacity="0.7"><text x="639.3333333333334" y="475.0" font-family="'Segoe UI', system-ui, -apple-system, Roboto, sans-serif" font-size="19.5" font-weight="700" fill="#1874D2" text-anchor="start">18%</text></g><text x="639.3333333333334" y="475.0" font-family="'Segoe UI', system-ui, -apple-system, Roboto, sans-serif" font-size="19.5" font-weight="700" fill="#1874D2" text-anchor="start">18%</text><text x="689.3333333333334" y="475.0" font-family="'Segoe UI', system-ui, -apple-system, Roboto, sans-serif" font-size="19.5" font-weight="400" fill="#1F2328" text-anchor="start">Thu 14:05</text></g><g opacity="0"><animate attributeName="opacity" values="0;1" keyTimes="0;0.5" dur="10s" calcMode="discrete" repeatCount="indefinite"/><text x="424.6666666666667" y="475.0" font-family="'Segoe UI', system-ui, -apple-system, Roboto, sans-serif" font-size="19.5" font-weight="400" fill="#1F2328" text-anchor="start">Fable</text><clipPath id="c15"><rect x="496.6666666666667" y="462.75" width="88.78" height="10.5" rx="5.25"/></clipPath><rect x="496.6666666666667" y="462.75" width="128.66666666666669" height="10.5" rx="5.25" fill="#EBEDF0"/><g filter="url(#g)" opacity="0.7"><g clip-path="url(#c15)"><rect x="496.6666666666667" y="462.75" width="88.78" height="10.5" fill="#139A43"/><rect x="496.67" y="462.75" width="89.28" height="10.5" fill="#139A43"/></g></g><g clip-path="url(#c15)"><rect x="496.6666666666667" y="462.75" width="88.78" height="10.5" fill="#139A43"/><rect x="496.67" y="462.75" width="89.28" height="10.5" fill="#139A43"/></g><g filter="url(#g)" opacity="0.7"><text x="639.3333333333334" y="475.0" font-family="'Segoe UI', system-ui, -apple-system, Roboto, sans-serif" font-size="19.5" font-weight="700" fill="#139A43" text-anchor="start">69%</text></g><text x="639.3333333333334" y="475.0" font-family="'Segoe UI', system-ui, -apple-system, Roboto, sans-serif" font-size="19.5" font-weight="700" fill="#139A43" text-anchor="start">69%</text><text x="689.3333333333334" y="475.0" font-family="'Segoe UI', system-ui, -apple-system, Roboto, sans-serif" font-size="19.5" font-weight="400" fill="#1F2328" text-anchor="start">Thu 14:05</text></g><text x="790.3333333333334" y="475.0" font-family="'Segoe UI', system-ui, -apple-system, Roboto, sans-serif" font-size="19.5" font-weight="400" fill="#656D76" text-anchor="middle">│</text><text x="805.3333333333334" y="475.0" font-family="'Segoe UI', system-ui, -apple-system, Roboto, sans-serif" font-size="19.5" font-weight="400" fill="#1F2328" text-anchor="start">Context</text><clipPath id="c16"><rect x="885.3333333333334" y="462.75" width="112.22" height="10.5" rx="5.25"/></clipPath><rect x="885.3333333333334" y="462.75" width="120.66666666666669" height="10.5" rx="5.25" fill="#EBEDF0"/><g filter="url(#g)" opacity="0.7"><g clip-path="url(#c16)"><rect x="885.3333333333334" y="462.75" width="112.22" height="10.5" fill="#E8001F"/><rect x="885.33" y="462.75" width="112.72" height="10.5" fill="#E8001F"/></g></g><g clip-path="url(#c16)"><rect x="885.3333333333334" y="462.75" width="112.22" height="10.5" fill="#E8001F"/><rect x="885.33" y="462.75" width="112.72" height="10.5" fill="#E8001F"/></g><g filter="url(#g)" opacity="0.7"><text x="1020.0" y="475.0" font-family="'Segoe UI', system-ui, -apple-system, Roboto, sans-serif" font-size="19.5" font-weight="700" fill="#E8001F" text-anchor="start">93%</text></g><text x="1020.0" y="475.0" font-family="'Segoe UI', system-ui, -apple-system, Roboto, sans-serif" font-size="19.5" font-weight="700" fill="#E8001F" text-anchor="start">93%</text><text x="1070.0" y="475.0" font-family="'Segoe UI', system-ui, -apple-system, Roboto, sans-serif" font-size="19.5" font-weight="400" fill="#1F2328" text-anchor="start">930k/1M</text>
<text x="44" y="512.0" font-family="'Segoe UI', system-ui, -apple-system, Roboto, sans-serif" font-size="13" font-weight="600" fill="#656D76" text-anchor="start">Dots</text>
<text x="44" y="545.0" font-family="'Segoe UI', system-ui, -apple-system, Roboto, sans-serif" font-size="19.5" font-weight="400" fill="#1F2328" text-anchor="start">5-hour</text><g filter="url(#g)" opacity="0.7"><circle cx="123.5" cy="538.0" r="6" fill="#1874D2"/></g><circle cx="123.5" cy="538.0" r="4.8" fill="#1874D2"/><g filter="url(#g)" opacity="0.7"><circle cx="138.5" cy="538.0" r="6" fill="#1874D2"/></g><circle cx="138.5" cy="538.0" r="4.8" fill="#1874D2"/><g filter="url(#g)" opacity="0.7"><circle cx="153.5" cy="538.0" r="6" fill="#32A800"/></g><circle cx="153.5" cy="538.0" r="4.8" fill="#32A800"/><g filter="url(#g)" opacity="0.7"><circle cx="168.5" cy="538.0" r="6" fill="#139A43"/></g><circle cx="168.5" cy="538.0" r="4.8" fill="#139A43"/><g filter="url(#g)" opacity="0.7"><circle cx="183.5" cy="538.0" r="6" fill="#139A43"/></g><circle cx="183.5" cy="538.0" r="4.8" fill="#139A43"/><g filter="url(#g)" opacity="0.7"><circle cx="198.5" cy="538.0" r="6" fill="#A89200"/></g><circle cx="198.5" cy="538.0" r="4.8" fill="#A89200"/><g filter="url(#g)" opacity="0.7"><circle cx="213.5" cy="538.0" r="6" fill="#E84A00"/></g><circle cx="213.5" cy="538.0" r="4.8" fill="#E84A00"/><circle cx="228.5" cy="538.0" r="4.8" fill="#EBEDF0"/><g filter="url(#g)" opacity="0.7"><text x="258.6666666666667" y="545.0" font-family="'Segoe UI', system-ui, -apple-system, Roboto, sans-serif" font-size="19.5" font-weight="700" fill="#E84A00" text-anchor="start">82%</text></g><text x="258.6666666666667" y="545.0" font-family="'Segoe UI', system-ui, -apple-system, Roboto, sans-serif" font-size="19.5" font-weight="700" fill="#E84A00" text-anchor="start">82%</text><text x="308.6666666666667" y="545.0" font-family="'Segoe UI', system-ui, -apple-system, Roboto, sans-serif" font-size="19.5" font-weight="400" fill="#1F2328" text-anchor="start">in 3h13m</text><text x="409.6666666666667" y="545.0" font-family="'Segoe UI', system-ui, -apple-system, Roboto, sans-serif" font-size="19.5" font-weight="400" fill="#656D76" text-anchor="middle">│</text><g opacity="1"><animate attributeName="opacity" values="1;0" keyTimes="0;0.5" dur="10s" calcMode="discrete" repeatCount="indefinite"/><text x="424.6666666666667" y="545.0" font-family="'Segoe UI', system-ui, -apple-system, Roboto, sans-serif" font-size="19.5" font-weight="400" fill="#1F2328" text-anchor="start">Weekly</text><g filter="url(#g)" opacity="0.7"><circle cx="504.1666666666667" cy="538.0" r="6" fill="#1874D2"/></g><circle cx="504.1666666666667" cy="538.0" r="4.8" fill="#1874D2"/><circle cx="519.1666666666667" cy="538.0" r="4.8" fill="#EBEDF0"/><circle cx="534.1666666666667" cy="538.0" r="4.8" fill="#EBEDF0"/><circle cx="549.1666666666667" cy="538.0" r="4.8" fill="#EBEDF0"/><circle cx="564.1666666666667" cy="538.0" r="4.8" fill="#EBEDF0"/><circle cx="579.1666666666667" cy="538.0" r="4.8" fill="#EBEDF0"/><circle cx="594.1666666666667" cy="538.0" r="4.8" fill="#EBEDF0"/><circle cx="609.1666666666667" cy="538.0" r="4.8" fill="#EBEDF0"/><g filter="url(#g)" opacity="0.7"><text x="639.3333333333334" y="545.0" font-family="'Segoe UI', system-ui, -apple-system, Roboto, sans-serif" font-size="19.5" font-weight="700" fill="#1874D2" text-anchor="start">18%</text></g><text x="639.3333333333334" y="545.0" font-family="'Segoe UI', system-ui, -apple-system, Roboto, sans-serif" font-size="19.5" font-weight="700" fill="#1874D2" text-anchor="start">18%</text><text x="689.3333333333334" y="545.0" font-family="'Segoe UI', system-ui, -apple-system, Roboto, sans-serif" font-size="19.5" font-weight="400" fill="#1F2328" text-anchor="start">Thu 14:05</text></g><g opacity="0"><animate attributeName="opacity" values="0;1" keyTimes="0;0.5" dur="10s" calcMode="discrete" repeatCount="indefinite"/><text x="424.6666666666667" y="545.0" font-family="'Segoe UI', system-ui, -apple-system, Roboto, sans-serif" font-size="19.5" font-weight="400" fill="#1F2328" text-anchor="start">Fable</text><g filter="url(#g)" opacity="0.7"><circle cx="504.1666666666667" cy="538.0" r="6" fill="#1874D2"/></g><circle cx="504.1666666666667" cy="538.0" r="4.8" fill="#1874D2"/><g filter="url(#g)" opacity="0.7"><circle cx="519.1666666666667" cy="538.0" r="6" fill="#1874D2"/></g><circle cx="519.1666666666667" cy="538.0" r="4.8" fill="#1874D2"/><g filter="url(#g)" opacity="0.7"><circle cx="534.1666666666667" cy="538.0" r="6" fill="#32A800"/></g><circle cx="534.1666666666667" cy="538.0" r="4.8" fill="#32A800"/><g filter="url(#g)" opacity="0.7"><circle cx="549.1666666666667" cy="538.0" r="6" fill="#32A800"/></g><circle cx="549.1666666666667" cy="538.0" r="4.8" fill="#32A800"/><g filter="url(#g)" opacity="0.7"><circle cx="564.1666666666667" cy="538.0" r="6" fill="#139A43"/></g><circle cx="564.1666666666667" cy="538.0" r="4.8" fill="#139A43"/><g filter="url(#g)" opacity="0.7"><circle cx="579.1666666666667" cy="538.0" r="6" fill="#139A43"/></g><circle cx="579.1666666666667" cy="538.0" r="4.8" fill="#139A43"/><circle cx="594.1666666666667" cy="538.0" r="4.8" fill="#EBEDF0"/><circle cx="609.1666666666667" cy="538.0" r="4.8" fill="#EBEDF0"/><g filter="url(#g)" opacity="0.7"><text x="639.3333333333334" y="545.0" font-family="'Segoe UI', system-ui, -apple-system, Roboto, sans-serif" font-size="19.5" font-weight="700" fill="#139A43" text-anchor="start">69%</text></g><text x="639.3333333333334" y="545.0" font-family="'Segoe UI', system-ui, -apple-system, Roboto, sans-serif" font-size="19.5" font-weight="700" fill="#139A43" text-anchor="start">69%</text><text x="689.3333333333334" y="545.0" font-family="'Segoe UI', system-ui, -apple-system, Roboto, sans-serif" font-size="19.5" font-weight="400" fill="#1F2328" text-anchor="start">Thu 14:05</text></g><text x="790.3333333333334" y="545.0" font-family="'Segoe UI', system-ui, -apple-system, Roboto, sans-serif" font-size="19.5" font-weight="400" fill="#656D76" text-anchor="middle">│</text><text x="805.3333333333334" y="545.0" font-family="'Segoe UI', system-ui, -apple-system, Roboto, sans-serif" font-size="19.5" font-weight="400" fill="#1F2328" text-anchor="start">Context</text><g filter="url(#g)" opacity="0.7"><circle cx="892.8333333333334" cy="538.0" r="6" fill="#1874D2"/></g><circle cx="892.8333333333334" cy="538.0" r="4.8" fill="#1874D2"/><g filter="url(#g)" opacity="0.7"><circle cx="907.8333333333334" cy="538.0" r="6" fill="#1874D2"/></g><circle cx="907.8333333333334" cy="538.0" r="4.8" fill="#1874D2"/><g filter="url(#g)" opacity="0.7"><circle cx="922.8333333333334" cy="538.0" r="6" fill="#32A800"/></g><circle cx="922.8333333333334" cy="538.0" r="4.8" fill="#32A800"/><g filter="url(#g)" opacity="0.7"><circle cx="937.8333333333334" cy="538.0" r="6" fill="#139A43"/></g><circle cx="937.8333333333334" cy="538.0" r="4.8" fill="#139A43"/><g filter="url(#g)" opacity="0.7"><circle cx="952.8333333333334" cy="538.0" r="6" fill="#A89200"/></g><circle cx="952.8333333333334" cy="538.0" r="4.8" fill="#A89200"/><g filter="url(#g)" opacity="0.7"><circle cx="967.8333333333334" cy="538.0" r="6" fill="#E84A00"/></g><circle cx="967.8333333333334" cy="538.0" r="4.8" fill="#E84A00"/><g filter="url(#g)" opacity="0.7"><circle cx="982.8333333333334" cy="538.0" r="6" fill="#E8001F"/></g><circle cx="982.8333333333334" cy="538.0" r="4.8" fill="#E8001F"/><circle cx="997.8333333333334" cy="538.0" r="4.8" fill="#EBEDF0"/><g filter="url(#g)" opacity="0.7"><text x="1020.0" y="545.0" font-family="'Segoe UI', system-ui, -apple-system, Roboto, sans-serif" font-size="19.5" font-weight="700" fill="#E8001F" text-anchor="start">93%</text></g><text x="1020.0" y="545.0" font-family="'Segoe UI', system-ui, -apple-system, Roboto, sans-serif" font-size="19.5" font-weight="700" fill="#E8001F" text-anchor="start">93%</text><text x="1070.0" y="545.0" font-family="'Segoe UI', system-ui, -apple-system, Roboto, sans-serif" font-size="19.5" font-weight="400" fill="#1F2328" text-anchor="start">930k/1M</text>
</g>
<rect x="0.5" y="0.5" width="1199" height="599" rx="14" fill="none" stroke="#6E7681" stroke-opacity="0.6"/>
</svg>